<svg xmlns="http://www.w3.org/2000/svg" width="1280" height="720" viewBox="0 0 1280 720" role="img" aria-label="Dynamic GitHub dashboard for suyashx1">
  <defs>
    <linearGradient id="bg" x1="0" y1="0" x2="1" y2="1">
      <stop offset="0%" stop-color="#0d1117"/>
      <stop offset="100%" stop-color="#161b22"/>
    </linearGradient>
    <linearGradient id="titleGradient" x1="0" y1="0" x2="1" y2="0">
      <stop offset="0%" stop-color="#58a6ff"/>
      <stop offset="100%" stop-color="#bc8cff"/>
    </linearGradient>
    <filter id="shadow" x="-20%" y="-20%" width="140%" height="140%">
      <feDropShadow dx="0" dy="10" stdDeviation="12" flood-opacity="0.2"/>
    </filter>
  </defs>

  <rect width="1280" height="720" rx="20" fill="url(#bg)"/>

  <rect x="40" y="40" width="1200" height="640" rx="18" fill="#111827" stroke="#30363d" filter="url(#shadow)"/>

  <text x="75" y="105" fill="url(#titleGradient)" font-size="38" font-weight="800" font-family="Inter, Segoe UI, Arial, sans-serif">Suyash</text>
  <text x="75" y="138" fill="#8b949e" font-size="18" font-family="Inter, Segoe UI, Arial, sans-serif">Building cool products with code, AI, and automation.</text>

  <text x="75" y="188" fill="#58a6ff" font-size="16" font-weight="700">@suyashx1</text>
  <text x="75" y="214" fill="#8b949e" font-size="14">📍 Indore, India</text>
  <text x="75" y="238" fill="#8b949e" font-size="14">🧠 Focus: AI workflows, backend engineering, and product systems</text>

  <rect x="60" y="270" width="520" height="2" fill="#30363d"/>
  <text x="75" y="305" fill="#58a6ff" font-size="16" font-weight="700">Highlights</text>
  <text x="75" y="340" fill="#c9d1d9" font-size="14">• Shipping practical AI + automation experiments</text><text x="75" y="368" fill="#c9d1d9" font-size="14">• Building robust backend APIs and tooling</text><text x="75" y="396" fill="#c9d1d9" font-size="14">• Exploring data-driven product dashboards</text><text x="75" y="424" fill="#c9d1d9" font-size="14">• Open to collaboration on impactful projects</text>

  <text x="75" y="490" fill="#58a6ff" font-size="16" font-weight="700">Contact</text>
  <text x="75" y="520" fill="#c9d1d9" font-size="14">✉️ suyashx1@users.noreply.github.com</text>
  <text x="75" y="546" fill="#c9d1d9" font-size="14">🔗 https://github.com/suyashx1</text>
  <text x="75" y="572" fill="#c9d1d9" font-size="14">💼 linkedin.com/in/suyashx1</text>

  <rect x="630" y="85" width="575" height="250" rx="14" fill="rgba(127,127,127,0.08)" stroke="#30363d"/>
  <text x="660" y="126" fill="#58a6ff" font-size="18" font-weight="700">GitHub Snapshot</text>
  <text x="1160" y="126" text-anchor="end" fill="#8b949e" font-size="12">Waiting for GitHub Actions refresh</text>

  <text x="660" y="172" fill="#c9d1d9" font-size="15">Public repos</text>
  <text x="1160" y="172" text-anchor="end" fill="#c9d1d9" font-size="15" font-weight="700">syncing...</text>

  <text x="660" y="205" fill="#c9d1d9" font-size="15">Followers</text>
  <text x="1160" y="205" text-anchor="end" fill="#c9d1d9" font-size="15" font-weight="700">syncing...</text>

  <text x="660" y="238" fill="#c9d1d9" font-size="15">Total stars</text>
  <text x="1160" y="238" text-anchor="end" fill="#c9d1d9" font-size="15" font-weight="700">syncing...</text>

  <text x="660" y="271" fill="#c9d1d9" font-size="15">Total forks</text>
  <text x="1160" y="271" text-anchor="end" fill="#c9d1d9" font-size="15" font-weight="700">syncing...</text>

  <text x="660" y="304" fill="#c9d1d9" font-size="15">Member since</text>
  <text x="1160" y="304" text-anchor="end" fill="#c9d1d9" font-size="15" font-weight="700">syncing...</text>

  <text x="650" y="372" fill="#58a6ff" font-size="16" font-weight="700">12-month repo activity</text>
  <polyline points="650.0,470.0 699.1,470.0 748.2,470.0 797.3,470.0 846.4,470.0 895.5,470.0 944.5,470.0 993.6,470.0 1042.7,470.0 1091.8,470.0 1140.9,470.0 1190.0,470.0" fill="none" stroke="#bc8cff" stroke-width="4" stroke-linecap="round"/>

  <text x="650" y="442" fill="#58a6ff" font-size="16" font-weight="700">Top languages (by repositories)</text>
  <text x="650" y="474" fill="#c9d1d9" font-size="13" font-weight="600">Python</text>
<rect x="745" y="463" width="400" height="12" rx="6" fill="rgba(127,127,127,0.25)"/>
<rect x="745" y="463" width="400" height="12" rx="6" fill="#58a6ff"/>
<text x="1160" y="474" text-anchor="end" fill="#c9d1d9" font-size="12">5</text>
<text x="650" y="502" fill="#c9d1d9" font-size="13" font-weight="600">JavaScript</text>
<rect x="745" y="491" width="400" height="12" rx="6" fill="rgba(127,127,127,0.25)"/>
<rect x="745" y="491" width="320" height="12" rx="6" fill="#bc8cff"/>
<text x="1160" y="502" text-anchor="end" fill="#c9d1d9" font-size="12">4</text>
<text x="650" y="530" fill="#c9d1d9" font-size="13" font-weight="600">TypeScript</text>
<rect x="745" y="519" width="400" height="12" rx="6" fill="rgba(127,127,127,0.25)"/>
<rect x="745" y="519" width="240" height="12" rx="6" fill="#2ea043"/>
<text x="1160" y="530" text-anchor="end" fill="#c9d1d9" font-size="12">3</text>
<text x="650" y="558" fill="#c9d1d9" font-size="13" font-weight="600">SQL</text>
<rect x="745" y="547" width="400" height="12" rx="6" fill="rgba(127,127,127,0.25)"/>
<rect x="745" y="547" width="160" height="12" rx="6" fill="#ffa657"/>
<text x="1160" y="558" text-anchor="end" fill="#c9d1d9" font-size="12">2</text>
<text x="650" y="586" fill="#c9d1d9" font-size="13" font-weight="600">Bash</text>
<rect x="745" y="575" width="400" height="12" rx="6" fill="rgba(127,127,127,0.25)"/>
<rect x="745" y="575" width="80" height="12" rx="6" fill="#f778ba"/>
<text x="1160" y="586" text-anchor="end" fill="#c9d1d9" font-size="12">1</text>

  <text x="75" y="646" fill="#8b949e" font-size="12">Auto-updated daily via GitHub Actions • Last refresh: 2026-08-24 18:12 UTC</text>
</svg>
